<svg width="34" height="34" viewBox="0 0 34 34" fill="none" xmlns="http://www.w3.org/2000/svg">
<path d="M15.7819 0.935474C16.5003 0.38378 17.4997 0.383779 18.2181 0.935473L23.1905 4.75402C23.3296 4.86079 23.482 4.94882 23.644 5.01585L29.4372 7.41279C30.2742 7.7591 30.7739 8.62468 30.6553 9.52268L29.8346 15.7382C29.8116 15.912 29.8116 16.088 29.8346 16.2618L30.6553 22.4773C30.7739 23.3753 30.2742 24.2409 29.4372 24.5872L23.644 26.9842C23.482 27.0512 23.3296 27.1392 23.1905 27.246L18.2181 31.0645C17.4997 31.6162 16.5003 31.6162 15.7819 31.0645L10.8095 27.246C10.6704 27.1392 10.518 27.0512 10.356 26.9842L4.56281 24.5872C3.72583 24.2409 3.22608 23.3753 3.34466 22.4773L4.16543 16.2618C4.18838 16.088 4.18838 15.912 4.16543 15.7382L3.34466 9.52268C3.22608 8.62468 3.72583 7.7591 4.56281 7.41279L10.356 5.01585C10.518 4.94882 10.6704 4.86079 10.8095 4.75402L15.7819 0.935474Z" fill="#540624"/>
<g filter="url(#filter0_d_3069_1272)">
<path d="M17 29C24.1797 29 30 23.1797 30 16C30 8.8203 24.1797 3 17 3C9.82031 3 4 8.8203 4 16C4 23.1797 9.82031 29 17 29Z" fill="#540624"/>
<path opacity="0.18" d="M17 28C23.6274 28 29 22.6274 29 16C29 9.37258 23.6274 4 17 4C10.3726 4 5 9.37258 5 16C5 22.6274 10.3726 28 17 28Z" fill="#540624"/>
</g>
<path d="M28.069 15.9957C28.069 16.4479 28.0431 16.9001 27.9913 17.3394C27.9396 17.8304 27.8361 18.3214 27.7197 18.7866C27.6679 18.9933 27.6162 19.1871 27.5515 19.3938C27.4351 19.7556 27.3057 20.1174 27.1505 20.4663C26.8142 21.2286 26.4002 21.9392 25.9086 22.5982C25.4947 23.1538 25.029 23.6706 24.5116 24.1487C22.5582 25.9576 19.9451 27.0559 17.0733 27.0688C14.2015 27.0817 11.5755 25.9964 9.60925 24.2004C9.10475 23.7352 8.63905 23.2313 8.2251 22.6886C7.44894 21.6679 6.85388 20.505 6.47873 19.2646C6.29763 18.6832 6.16827 18.0759 6.09065 17.4557C6.03891 17.0035 6.0001 16.5513 6.0001 16.099C5.97423 9.97455 10.8899 5.02587 16.9957 5.00003C23.0886 4.9871 28.0431 9.89702 28.069 15.9957Z" fill="black"/>
<path d="M27.4948 17.2809L27.4947 17.2809L27.4941 17.287C27.4458 17.7453 27.3483 18.2111 27.2347 18.6652C27.1843 18.8664 27.1353 19.0494 27.0749 19.2426C26.9617 19.5942 26.8387 19.937 26.6937 20.263L26.6931 20.2644C26.3717 20.9928 25.9767 21.6708 25.5079 22.2992L25.5077 22.2995C25.1124 22.83 24.6675 23.3239 24.1723 23.7815L24.1718 23.7818C22.3079 25.5079 19.8145 26.5565 17.0711 26.5688C14.3293 26.5812 11.8238 25.5456 9.94728 23.832C9.46264 23.385 9.01728 22.9027 8.62269 22.3855C7.88275 21.4122 7.31515 20.303 6.95733 19.1199L6.95734 19.1199L6.95611 19.1159C6.78451 18.565 6.66128 17.9877 6.58711 17.3962C6.53645 16.953 6.5001 16.523 6.50011 16.099L6.5001 16.0969C6.47539 10.2487 11.1679 5.52497 16.9973 5.50002C22.8144 5.48798 27.5435 10.1749 27.569 15.9964C27.5689 16.4296 27.5441 16.862 27.4948 17.2809Z" stroke="#C2185B" stroke-opacity="0.56"/>
<path d="M17.2443 21.1591C16.3958 21.1591 15.6402 21.0133 14.9773 20.7216C14.3182 20.4261 13.7973 20.0208 13.4148 19.5057C13.036 18.9867 12.8409 18.3883 12.8295 17.7102H15.3068C15.322 17.9943 15.4148 18.2443 15.5852 18.4602C15.7595 18.6723 15.9905 18.8371 16.2784 18.9545C16.5663 19.072 16.8902 19.1307 17.25 19.1307C17.625 19.1307 17.9564 19.0644 18.2443 18.9318C18.5322 18.7992 18.7576 18.6155 18.9205 18.3807C19.0833 18.1458 19.1648 17.875 19.1648 17.5682C19.1648 17.2576 19.0777 16.983 18.9034 16.7443C18.733 16.5019 18.4867 16.3125 18.1648 16.1761C17.8466 16.0398 17.4678 15.9716 17.0284 15.9716H15.9432V14.1648H17.0284C17.3996 14.1648 17.7273 14.1004 18.0114 13.9716C18.2992 13.8428 18.5227 13.6648 18.6818 13.4375C18.8409 13.2064 18.9205 12.9375 18.9205 12.6307C18.9205 12.339 18.8504 12.0833 18.7102 11.8636C18.5739 11.6402 18.3807 11.4659 18.1307 11.3409C17.8845 11.2159 17.5966 11.1534 17.267 11.1534C16.9337 11.1534 16.6288 11.214 16.3523 11.3352C16.0758 11.4527 15.8542 11.6212 15.6875 11.8409C15.5208 12.0606 15.4318 12.3182 15.4205 12.6136H13.0625C13.0739 11.9432 13.2652 11.3523 13.6364 10.8409C14.0076 10.3295 14.5076 9.92992 15.1364 9.64205C15.7689 9.35038 16.483 9.20455 17.2784 9.20455C18.0814 9.20455 18.7841 9.35038 19.3864 9.64205C19.9886 9.93371 20.4564 10.3277 20.7898 10.8239C21.1269 11.3163 21.2936 11.8693 21.2898 12.483C21.2936 13.1345 21.0909 13.678 20.6818 14.1136C20.2765 14.5492 19.7481 14.8258 19.0966 14.9432V15.0341C19.9527 15.1439 20.6042 15.4413 21.0511 15.9261C21.5019 16.4072 21.7254 17.0095 21.7216 17.733C21.7254 18.3958 21.5341 18.9848 21.1477 19.5C20.7652 20.0152 20.2367 20.4205 19.5625 20.7159C18.8883 21.0114 18.1155 21.1591 17.2443 21.1591Z" fill="white"/>
<defs>
<filter id="filter0_d_3069_1272" x="0" y="0" width="34" height="34" filterUnits="userSpaceOnUse" color-interpolation-filters="sRGB">
<feFlood flood-opacity="0" result="BackgroundImageFix"/>
<feColorMatrix in="SourceAlpha" type="matrix" values="0 0 0 0 0 0 0 0 0 0 0 0 0 0 0 0 0 0 127 0" result="hardAlpha"/>
<feOffset dy="1"/>
<feGaussianBlur stdDeviation="2"/>
<feColorMatrix type="matrix" values="0 0 0 0 0.00392157 0 0 0 0 0.0196078 0 0 0 0 0.2 0 0 0 0.08 0"/>
<feBlend mode="normal" in2="BackgroundImageFix" result="effect1_dropShadow_3069_1272"/>
<feBlend mode="normal" in="SourceGraphic" in2="effect1_dropShadow_3069_1272" result="shape"/>
</filter>
</defs>
</svg>
